<svg
    id="Groupe_71"
    data-name="Groupe 71"
    xmlns="http://www.w3.org/2000/svg"
    width="428"
    height="350"
    viewBox="0 0 428 350">
    <path
        id="Union_1"
        data-name="Union 1"
        d="M281.84,141.407s-25.264-47.612-72.3,0-71.333-22.761-71.333-22.761S111.978,54.1,69.847,99.623,0,92.255,0,92.255V0H428V56.739h0s0,.131,0,.378v4.24h0c-.006,12.028-.018,43.42,0,43.763.026.425,0,28.589-25.264,30.788-20.806-.66-30.763-34.087-65.909,5.5C325.109,154.6,315.1,159,306.95,159,290.659,159,281.84,141.407,281.84,141.407Z"
        transform="translate(0 191)"
        fill="#e92626" />
    <rect id="Rectangle_8" data-name="Rectangle 8" width="428" height="199" fill="#e92626" />
</svg>